PathFileType	3	(X/Y/Z)	F:\ViconData\AntennenMessung\Messung1\Session1\ID23.trc
DataRate	CameraRate	NumFrames	NumMarkers	Units	OrigDataRate	OrigDataStartFrame	OrigNumFrames
120.0	120.0	4	70	mm	120.0	376	1000	
Frame#	Time	Ashort			Along			Atop			A4			Bshort			Blong			Btop			B4			Cshort			Clong			Ctop			C4			Dshort			Dlong			Dtop			D4			Eshort			Elong			Etop			E4			Fshort			Flong			Ftop			F4			Gshort			Glong			Gtop			G4			Hshort			Hlong			Htop			H4			I1			I2			I3			I4			I5			WandAshort			WandAlong			WandAtop			WandA4			WandA15			WandBshort			WandB4			WandB5			WandBtop			WandBlong			WandCshort			WandClong			WandCtop			WandC4			WandC5			Acenter			Aantenna			Bcenter			Bantenna			Ccenter			Cantenna			Dcenter			Dantenna			Ecenter			Eantenna			Fcenter			Fantenna			Gcenter			Gantenna			Hcenter			Hantenna			Icenter			Iantenna			
		X1	Y1	Z1	X2	Y2	Z2	X3	Y3	Z3	X4	Y4	Z4	X5	Y5	Z5	X6	Y6	Z6	X7	Y7	Z7	X8	Y8	Z8	X9	Y9	Z9	X10	Y10	Z10	X11	Y11	Z11	X12	Y12	Z12	X13	Y13	Z13	X14	Y14	Z14	X15	Y15	Z15	X16	Y16	Z16	X17	Y17	Z17	X18	Y18	Z18	X19	Y19	Z19	X20	Y20	Z20	X21	Y21	Z21	X22	Y22	Z22	X23	Y23	Z23	X24	Y24	Z24	X25	Y25	Z25	X26	Y26	Z26	X27	Y27	Z27	X28	Y28	Z28	X29	Y29	Z29	X30	Y30	Z30	X31	Y31	Z31	X32	Y32	Z32	X33	Y33	Z33	X34	Y34	Z34	X35	Y35	Z35	X36	Y36	Z36	X37	Y37	Z37	X38	Y38	Z38	X39	Y39	Z39	X40	Y40	Z40	X41	Y41	Z41	X42	Y42	Z42	X43	Y43	Z43	X44	Y44	Z44	X45	Y45	Z45	X46	Y46	Z46	X47	Y47	Z47	X48	Y48	Z48	X49	Y49	Z49	X50	Y50	Z50	X51	Y51	Z51	X52	Y52	Z52	X53	Y53	Z53	X54	Y54	Z54	X55	Y55	Z55	X56	Y56	Z56	X57	Y57	Z57	X58	Y58	Z58	X59	Y59	Z59	X60	Y60	Z60	X61	Y61	Z61	X62	Y62	Z62	X63	Y63	Z63	X64	Y64	Z64	X65	Y65	Z65	X66	Y66	Z66	X67	Y67	Z67	X68	Y68	Z68	X69	Y69	Z69	X70	Y70	Z70	
376	3.125	-1038.1807	214.62009	-1643.996	-1109.5854	204.10956	-1599.4614	-1063.7057	173.19063	-1625.8177	-1054.1235	262.35886	-1634.9164	-1352.5508	235.32623	1003.3184	-1281.2479	227.51546	1052.077	-1322.5059	194.02556	1020.81	-1284.4521	287.97571	1052.6	813.95416	187.80348	1209.439	892.70001	179.36127	1178.4105	844.52637	145.45894	1198.3622	860.97754	292.49686	1168.3517	1115.8461	210.05794	-1401.8374	1056.3317	194.0937	-1460.2437	1094.9413	162.1611	-1423.8416	1069.6504	239.57367	-1426.2795	-1204.7189	1686.1165	-1562.839	-1129.1134	1688.3804	-1605.9543	-1173.1589	1724.3315	-1581.8383	-1133.9817	1581.0848	-1603.902	-1239.5889	1699.1281	1119.5847	-1308.4438	1699.5848	1070.2228	-1270.4137	1736.2736	1096.9541	-1245.5908	1592.8027	1110.7556	988.86102	1664.1677	1162.0686	957.33197	1700.4956	1183.8152	922.00507	1662.2802	1214.9514	939.85297	1659.4865	1159.6858	999.10681	1668.4653	-1579.4087	1058.9159	1670.1841	-1518.6998	1025.0358	1708.1019	-1551.1387	1059.343	1672.1975	-1585.4213	-231.38815	1638.9064	-185.80891	-228.90172	1638.3665	-270.26837	-229.71704	1675.4696	-223.70509	-196.27838	1638.4917	-221.50916	-278.74347	1639.9075	-223.88321																																														-1068.6351	210.13728	-1625.0017	-1073.7916	248.78546	-1624.1481	-1321.1031	231.88133	1024.8231	-1319.6671	270.63773	1028.9316	847.78851	184.17615	1196.1071	851.0575	222.97316	1193.8473	1088.6492	202.7626	-1428.5277	1082.7151	241.05429	-1432.9474	-1171.8866	1687.0995	-1581.5621	-1170.5547	1648.1233	-1581.2732	-1270.8275	1699.3352	1097.1896	-1271.2645	1660.3384	1097.4382	952.77625	1705.7445	1186.9574	972.72314	1733.9194	1168.8108	1026.5609	1669.2543	-1551.5415	1028.0909	1630.2865	-1551.9454	-230.27895	1638.6654	-223.48636	-230.87427	1599.6707	-223.25461
377	3.1333333	-1038.1749	214.55045	-1643.9675	-1109.5544	204.16159	-1599.5251	-1063.7345	173.13792	-1625.772	-1054.1016	262.36551	-1634.9258	-1352.65	235.02199	1003.3837	-1281.2539	227.5209	1052.063	-1322.5271	194.00087	1020.8965	-1284.3196	288.02936	1052.5205	814.03406	187.7637	1209.3925	892.16412	178.62514	1178.9038	844.55121	145.40784	1198.3357	860.99554	292.5618	1168.4485	1115.8422	210.04738	-1401.816	1056.3224	194.10754	-1460.2687	1094.9982	162.20488	-1423.7997	1069.6349	239.55568	-1426.285	-1204.7236	1686.1191	-1562.8292	-1129.1243	1688.394	-1605.9561	-1173.1477	1724.3308	-1581.8358	-1133.9899	1581.104	-1603.9329	-1239.5675	1699.0707	1119.5615	-1308.6194	1699.3839	1070.6289	-1270.4126	1736.2679	1096.9523	-1245.5618	1592.7477	1110.746	988.8974	1664.2039	1162.0868	957.30774	1700.4796	1183.8752	921.94922	1662.2466	1214.9725	939.77271	1659.4695	1159.7366	999.10388	1668.4513	-1579.3906	1058.9204	1670.1925	-1518.7023	1025.0314	1708.0945	-1551.1385	1059.3459	1672.1865	-1585.4219	-231.38747	1638.9183	-185.7981	-228.90219	1638.3531	-270.26917	-229.72333	1675.4786	-223.69829	-196.21753	1638.532	-221.49899	-278.74924	1639.9159	-223.89734																																														-1068.6366	210.1169	-1625.0012	-1073.7609	248.77042	-1624.1956	-1321.23	231.7209	1024.8066	-1319.8969	270.49039	1028.8254	848.15698	183.77246	1196.0767	851.80023	222.53479	1193.7942	1088.71	202.78119	-1428.4617	1082.7755	241.0751	-1432.8615	-1171.8748	1687.1075	-1581.5684	-1170.5421	1648.1313	-1581.2882	-1270.8788	1699.2125	1097.3732	-1271.3696	1660.2183	1097.816	952.69037	1705.7819	1187.0599	972.61841	1734.0035	1168.9656	1026.5618	1669.2505	-1551.5325	1028.0972	1630.2826	-1551.9277	-230.27913	1638.6661	-223.46832	-230.86789	1599.6714	-223.22473
378	3.1416667	-1038.1759	214.56818	-1643.9578	-1109.5638	204.13478	-1599.5135	-1064.6332	172.28723	-1625.0074	-1054.1051	262.41193	-1634.8695	-1352.4653	235.34644	1003.2529	-1281.3545	227.45761	1052.1791	-1322.495	194.04301	1020.8763	-1284.3383	287.96414	1052.499	813.98535	187.71274	1209.3917	892.24072	178.65077	1178.8683	844.54425	145.39139	1198.3617	860.92181	292.54071	1168.4236	1115.8019	209.76877	-1401.6777	1056.3295	194.16515	-1460.2758	1094.9841	162.16971	-1423.7849	1069.6521	239.56586	-1426.286	-1204.7266	1686.1211	-1562.8248	-1129.1481	1688.3918	-1605.9252	-1173.1561	1724.3441	-1581.8518	-1133.9917	1581.0986	-1603.915	-1239.5798	1699.1039	1119.5686	-1308.5148	1700.0101	1070.036	-1270.4347	1736.2886	1096.9578	-1245.623	1592.8793	1110.7756	988.86401	1664.182	1162.0903	957.29425	1700.5037	1183.8661	922.02124	1662.2487	1214.9246	939.81763	1659.4547	1159.7585	999.1145	1668.4581	-1579.4045	1058.9136	1670.1787	-1518.6956	1025.0396	1708.1	-1551.135	1059.3497	1672.2074	-1585.4291	-231.38089	1638.9095	-185.80354	-228.90584	1638.365	-270.2673	-229.72443	1675.4796	-223.6964	-196.29585	1638.4813	-221.5043	-278.74472	1639.8821	-223.88562																																														-1069.713	209.95898	-1624.3234	-1074.9241	248.60289	-1623.6218	-1321.047	231.86096	1024.8695	-1319.5631	270.61725	1028.9619	848.09967	183.76228	1196.0853	851.69177	222.52835	1193.7855	1088.7932	202.68254	-1428.2893	1082.9369	241.00421	-1432.5502	-1171.8716	1687.108	-1581.561	-1170.5271	1648.1324	-1581.2568	-1270.9622	1699.5164	1097.0189	-1271.5216	1660.5204	1097.0839	952.76373	1705.7161	1186.9911	972.70544	1733.912	1168.8716	1026.5649	1669.2479	-1551.5365	1028.0948	1630.2799	-1551.939	-230.27699	1638.6666	-223.47523	-230.86232	1599.6718	-223.24097
379	3.15	-1038.1876	214.532	-1643.9474	-1109.4926	204.3925	-1599.3413	-1063.6002	172.8287	-1625.7258	-1054.1313	262.3566	-1634.8923	-1352.6263	235.01125	1003.4027	-1281.339	227.50348	1052.1631	-1322.5405	193.98921	1020.9033	-1284.3356	288.01236	1052.6044	813.9458	187.74695	1209.3794	892.26208	178.81404	1178.7527	844.52258	145.3588	1198.3799	860.935	292.52655	1168.3459	1115.811	209.77757	-1401.6599	1056.339	194.17043	-1460.2632	1094.994	162.20451	-1423.7787	1069.6512	239.53822	-1426.2632	-1204.7249	1686.1204	-1562.8253	-1129.1382	1688.3751	-1605.9194	-1173.1503	1724.3401	-1581.8551	-1133.9963	1581.0852	-1603.8988	-1239.576	1699.0946	1119.5646	-1309.4115	1698.9757	1072.0636	-1270.4059	1736.2606	1096.9542	-1245.594	1592.8284	1110.7738	988.85327	1664.1854	1162.0996	957.35907	1700.4347	1183.8792	921.88226	1662.3182	1214.9468	939.82812	1659.4183	1159.7157	999.09399	1668.4694	-1579.4182	1058.9478	1670.2	-1518.7081	1025.0328	1708.1161	-1551.1583	1059.3442	1672.2037	-1585.4233	-231.38416	1638.8969	-185.80936	-228.90314	1638.3575	-270.27625	-229.72975	1675.474	-223.70419	-196.24863	1638.5154	-221.47925	-278.75342	1639.8976	-223.89467																																														-1068.4673	210.22626	-1625.0052	-1073.4995	248.89304	-1624.2603	-1321.2684	231.70874	1024.8513	-1319.9612	270.47504	1028.9091	848.00684	183.86186	1196.0592	851.51544	222.63338	1193.7227	1088.8008	202.68935	-1428.2755	1082.9386	241.01056	-1432.532	-1171.8695	1687.1005	-1581.557	-1170.5292	1648.1248	-1581.2451	-1271.1254	1699.0409	1098.1052	-1271.8785	1660.0668	1099.3103	952.68896	1705.8097	1187.1085	972.67035	1734.0183	1169.0527	1026.5614	1669.2634	-1551.5576	1028.0945	1630.2957	-1551.9584	-230.27751	1638.6561	-223.48518	-230.85765	1599.6613	-223.25325
